# xmcd
#
# Track frame offsets:
#	182
#	9795
#	26230
#	42757
#	54415
#	68032
#	86927
#	98555
#	109832
#	120505
#	132722
#	144277
#	159772
#	178670
#	192440
#	206232
#	218470
#	231627
#
# Disc length: 3294 seconds
#
# Revision: 1
# Processed by: cddbd v1.5.1PL0 Copyright (c) Steve Scherf et al.
# Submitted via: audiograbber 1.81.02
#
DISCID=f90cdc12
DTITLE=Flavio José - Terra Prometida
DYEAR=1993
DGENRE=Forró
TTITLE0=Na Quentura do Forró
TTITLE1=Pra Gente se Divertir
TTITLE2=Forró da Tremedeira
TTITLE3=Terra Prometida
TTITLE4=Forró em Monteiro
TTITLE5=Queima Fogueira
TTITLE6=Seca Nordestina
TTITLE7=Meu Xamego Meu Xodó
TTITLE8=Amor de Verdade
TTITLE9=Forró no Vale
TTITLE10=Forró Arretado
TTITLE11=Quando Olho Prá Você
TTITLE12=Não me Deixe
TTITLE13=Devolva
TTITLE14=Caboclo Sonhador
TTITLE15=Cinto e Sapato
TTITLE16=Sanfoneiro Bom
TTITLE17=Não Podia Ser Melhor
EXTD=
EXTT0=
EXTT1=
EXTT2=
EXTT3=
EXTT4=
EXTT5=
EXTT6=
EXTT7=
EXTT8=
EXTT9=
EXTT10=
EXTT11=
EXTT12=
EXTT13=
EXTT14=
EXTT15=
EXTT16=
EXTT17=
PLAYORDER=
